<svg xmlns="http://www.w3.org/2000/svg" width="1000" height="720" viewBox="0 0 1000 720">
<style>
  text { font-family: Arial, Helvetica, sans-serif; }
  .title { font-size: 18px; font-weight: bold; fill: #1a1a1a; }
  .subtitle { font-size: 11px; fill: #666; }
  .label { font-size: 11px; font-weight: bold; fill: #fff; }
  .label-dark { font-size: 11px; font-weight: bold; fill: #333; }
  .label-sm { font-size: 9px; fill: #fff; }
  .label-sm-dark { font-size: 9px; fill: #555; }
  .dim { font-size: 9px; fill: #888; }
  .arrow { stroke: #444; stroke-width: 2; fill: none; marker-end: url(#arrowhead); }
  .arrow-dash { stroke: #999; stroke-width: 1.5; stroke-dasharray: 6,3; fill: none; marker-end: url(#arrowhead-gray); }
</style>
<defs>
  <marker id="arrowhead" markerWidth="10" markerHeight="7" refX="10" refY="3.5" orient="auto">
    <polygon points="0 0, 10 3.5, 0 7" fill="#444" />
  </marker>
  <marker id="arrowhead-gray" markerWidth="8" markerHeight="6" refX="8" refY="3" orient="auto">
    <polygon points="0 0, 8 3, 0 6" fill="#999" />
  </marker>
</defs>
<text x="500" y="30" class="title" text-anchor="middle">MCP PCB EMCopilot - System Architecture</text>
<rect x="280" y="60" width="490" height="74" rx="10" fill="#f0f4ff" stroke="#93c5fd" stroke-width="1.5"/>
<text x="295" y="129" class="label-sm-dark" text-anchor="start">MCP Clients</text>
<rect x="300" y="70" width="130" height="44" rx="6" fill="#2563eb" stroke="#1d4ed8" stroke-width="1.5"/>
<text x="365" y="90" class="label" text-anchor="middle">Claude Code</text>
<rect x="460" y="70" width="130" height="44" rx="6" fill="#7c3aed" stroke="#6d28d9" stroke-width="1.5"/>
<text x="525" y="90" class="label" text-anchor="middle">Codex CLI</text>
<rect x="620" y="70" width="130" height="44" rx="6" fill="#64748b" stroke="#475569" stroke-width="1.5"/>
<text x="685" y="90" class="label" text-anchor="middle">Other MCP</text>
<text x="685" y="104" class="label" text-anchor="middle">Clients</text>
<rect x="325" y="175" width="350" height="50" rx="8" fill="#0f766e" stroke="#0d9488" stroke-width="1.5"/>
<text x="500" y="197" class="label" text-anchor="middle">MCP Server (93 Tools)</text>
<text x="500" y="213" class="label-sm" text-anchor="middle">Session Manager / Protocol Layer</text>
<line x1="365" y1="114" x2="500" y2="175" class="arrow"/>
<line x1="525" y1="114" x2="500" y2="175" class="arrow"/>
<line x1="685" y1="114" x2="500" y2="175" class="arrow"/>
<rect x="43" y="275" width="914" height="93" rx="10" fill="#fef3c7" stroke="#fbbf24" stroke-width="1.5"/>
<text x="58" y="363" class="label-sm-dark" text-anchor="start">Parser Layer</text>
<rect x="58" y="290" width="100" height="48" rx="4" fill="#f59e0b" stroke="#d97706" stroke-width="1.5"/>
<text x="108" y="308" class="label" text-anchor="middle">KiCad</text>
<text x="108" y="324" class="label-sm" text-anchor="middle">.kicad_pcb</text>
<rect x="170" y="290" width="100" height="48" rx="4" fill="#f59e0b" stroke="#d97706" stroke-width="1.5"/>
<text x="220" y="308" class="label" text-anchor="middle">ODB++</text>
<text x="220" y="324" class="label-sm" text-anchor="middle">.zip/.tgz</text>
<rect x="282" y="290" width="100" height="48" rx="4" fill="#f59e0b" stroke="#d97706" stroke-width="1.5"/>
<text x="332" y="308" class="label" text-anchor="middle">Gerber</text>
<text x="332" y="324" class="label-sm" text-anchor="middle">RS-274X</text>
<rect x="394" y="290" width="100" height="48" rx="4" fill="#f59e0b" stroke="#d97706" stroke-width="1.5"/>
<text x="444" y="308" class="label" text-anchor="middle">IPC-2581</text>
<text x="444" y="324" class="label-sm" text-anchor="middle">.xml</text>
<rect x="506" y="290" width="100" height="48" rx="4" fill="#f59e0b" stroke="#d97706" stroke-width="1.5"/>
<text x="556" y="308" class="label" text-anchor="middle">Altium</text>
<text x="556" y="324" class="label-sm" text-anchor="middle">.PcbDoc</text>
<rect x="618" y="290" width="100" height="48" rx="4" fill="#f59e0b" stroke="#d97706" stroke-width="1.5"/>
<text x="668" y="308" class="label" text-anchor="middle">STEP</text>
<text x="668" y="324" class="label-sm" text-anchor="middle">.step/.stp</text>
<rect x="730" y="290" width="100" height="48" rx="4" fill="#f59e0b" stroke="#d97706" stroke-width="1.5"/>
<text x="780" y="308" class="label" text-anchor="middle">PDF Schem.</text>
<text x="780" y="324" class="label-sm" text-anchor="middle">PDF</text>
<rect x="842" y="290" width="100" height="48" rx="4" fill="#f59e0b" stroke="#d97706" stroke-width="1.5"/>
<text x="892" y="308" class="label" text-anchor="middle">BOM</text>
<text x="892" y="324" class="label-sm" text-anchor="middle">.csv/.xlsx</text>
<line x1="500" y1="225" x2="500" y2="275" class="arrow"/>
<rect x="43" y="400" width="914" height="97" rx="10" fill="#fce7f3" stroke="#f472b6" stroke-width="1.5"/>
<text x="58" y="492" class="label-sm-dark" text-anchor="start">Analyzer Layer</text>
<rect x="58" y="415" width="100" height="52" rx="4" fill="#dc2626" stroke="#b91c1c" stroke-width="1.5"/>
<text x="108" y="437" class="label" text-anchor="middle">EMC / EMI</text>
<rect x="170" y="415" width="100" height="52" rx="4" fill="#2563eb" stroke="#1d4ed8" stroke-width="1.5"/>
<text x="220" y="437" class="label" text-anchor="middle">Signal</text>
<text x="220" y="451" class="label" text-anchor="middle">Integrity</text>
<rect x="282" y="415" width="100" height="52" rx="4" fill="#ea580c" stroke="#c2410c" stroke-width="1.5"/>
<text x="332" y="437" class="label" text-anchor="middle">Power</text>
<text x="332" y="451" class="label" text-anchor="middle">Integrity</text>
<rect x="394" y="415" width="100" height="52" rx="4" fill="#ca8a04" stroke="#a16207" stroke-width="1.5"/>
<text x="444" y="437" class="label" text-anchor="middle">Thermal</text>
<rect x="506" y="415" width="100" height="52" rx="4" fill="#16a34a" stroke="#15803d" stroke-width="1.5"/>
<text x="556" y="437" class="label" text-anchor="middle">DFM</text>
<rect x="618" y="415" width="100" height="52" rx="4" fill="#7c3aed" stroke="#6d28d9" stroke-width="1.5"/>
<text x="668" y="437" class="label" text-anchor="middle">RF/Antenna</text>
<rect x="730" y="415" width="100" height="52" rx="4" fill="#db2777" stroke="#be185d" stroke-width="1.5"/>
<text x="780" y="437" class="label" text-anchor="middle">ESD</text>
<rect x="842" y="415" width="100" height="52" rx="4" fill="#0891b2" stroke="#0e7490" stroke-width="1.5"/>
<text x="892" y="437" class="label" text-anchor="middle">High-Speed</text>
<text x="892" y="451" class="label" text-anchor="middle">Digital</text>
<line x1="500" y1="368" x2="500" y2="400" class="arrow"/>
<rect x="195" y="530" width="610" height="93" rx="10" fill="#ecfdf5" stroke="#6ee7b7" stroke-width="1.5"/>
<text x="210" y="618" class="label-sm-dark" text-anchor="start">Report &amp; Visualization Layer</text>
<rect x="210" y="545" width="130" height="48" rx="4" fill="#0d9488" stroke="#0f766e" stroke-width="1.5"/>
<text x="275" y="567" class="label" text-anchor="middle">SVG Renders</text>
<rect x="360" y="545" width="130" height="48" rx="4" fill="#3b82f6" stroke="#2563eb" stroke-width="1.5"/>
<text x="425" y="567" class="label" text-anchor="middle">PNG Export</text>
<rect x="510" y="545" width="130" height="48" rx="4" fill="#8b5cf6" stroke="#7c3aed" stroke-width="1.5"/>
<text x="575" y="567" class="label" text-anchor="middle">DOCX Reports</text>
<rect x="660" y="545" width="130" height="48" rx="4" fill="#f97316" stroke="#ea580c" stroke-width="1.5"/>
<text x="725" y="567" class="label" text-anchor="middle">Annotated</text>
<text x="725" y="581" class="label" text-anchor="middle">Boards</text>
<line x1="500" y1="497" x2="500" y2="530" class="arrow"/>
<rect x="820" y="265" width="175" height="216" rx="8" fill="#f5f3ff" stroke="#c4b5fd" stroke-width="1.5"/>
<text x="907" y="285" class="label-dark" text-anchor="middle">Integrations</text>
<rect x="830" y="305" width="155" height="36" rx="4" fill="#6366f1" stroke="#6366f1" stroke-width="1.5"/>
<text x="907" y="327" class="label" text-anchor="middle">mcp-emc-regulations</text>
<rect x="830" y="349" width="155" height="36" rx="4" fill="#8b5cf6" stroke="#8b5cf6" stroke-width="1.5"/>
<text x="907" y="371" class="label" text-anchor="middle">mcp-nec2-antenna</text>
<rect x="830" y="393" width="155" height="36" rx="4" fill="#a855f7" stroke="#a855f7" stroke-width="1.5"/>
<text x="907" y="415" class="label" text-anchor="middle">mcp-openems</text>
<rect x="830" y="437" width="155" height="36" rx="4" fill="#c084fc" stroke="#c084fc" stroke-width="1.5"/>
<text x="907" y="459" class="label" text-anchor="middle">mcp-drawio-eng.</text>
<line x1="830" y1="370" x2="675" y2="200" class="arrow-dash"/>
</svg>
